<?xml version="1.0" encoding="utf-8"?>
<svg version="1.1" xmlns:xlink="http://www.w3.org/1999/xlink" width="21px" height="21px" xmlns="http://www.w3.org/2000/svg">
  <g transform="matrix(1 0 0 1 -1216 -15 )">
    <path d="M 11.908203125 14.341796875  C 11.990234375 14.423828125  12.03125 14.5286458333333  12.03125 14.65625  L 12.03125 16.84375  C 12.03125 16.9713541666667  11.990234375 17.076171875  11.908203125 17.158203125  C 11.826171875 17.240234375  11.7213541666667 17.28125  11.59375 17.28125  L 9.40625 17.28125  C 9.27864583333333 17.28125  9.173828125 17.240234375  9.091796875 17.158203125  C 9.009765625 17.076171875  8.96875 16.9713541666667  8.96875 16.84375  L 8.96875 14.65625  C 8.96875 14.5286458333333  9.009765625 14.423828125  9.091796875 14.341796875  C 9.173828125 14.259765625  9.27864583333333 14.21875  9.40625 14.21875  L 11.59375 14.21875  C 11.7213541666667 14.21875  11.826171875 14.259765625  11.908203125 14.341796875  Z M 14.0341796875 4.9423828125  C 15.0322265625 5.75813802083333  15.53125 6.73567708333333  15.53125 7.875  C 15.53125 8.33072916666667  15.462890625 8.74088541666667  15.326171875 9.10546875  C 15.189453125 9.47005208333333  14.9820963541667 9.78450520833333  14.7041015625 10.048828125  C 14.4261067708333 10.3131510416667  14.1891276041667 10.513671875  13.9931640625 10.650390625  C 13.7972005208333 10.787109375  13.5260416666667 10.951171875  13.1796875 11.142578125  C 12.8880208333333 11.306640625  12.6761067708333 11.4342447916667  12.5439453125 11.525390625  C 12.4117838541667 11.6165364583333  12.2932942708333 11.7259114583333  12.1884765625 11.853515625  C 12.0836588541667 11.9811197916667  12.03125 12.11328125  12.03125 12.25  L 12.03125 12.6875  C 12.03125 12.8151041666667  11.990234375 12.919921875  11.908203125 13.001953125  C 11.826171875 13.083984375  11.7213541666667 13.125  11.59375 13.125  L 9.40625 13.125  C 9.27864583333333 13.125  9.173828125 13.083984375  9.091796875 13.001953125  C 9.009765625 12.919921875  8.96875 12.8151041666667  8.96875 12.6875  L 8.96875 11.7578125  C 8.96875 11.4388020833333  9.0166015625 11.1448567708333  9.1123046875 10.8759765625  C 9.2080078125 10.6070963541667  9.3173828125 10.390625  9.4404296875 10.2265625  C 9.5634765625 10.0625  9.7412109375 9.90071614583333  9.9736328125 9.7412109375  C 10.2060546875 9.58170572916667  10.3929036458333 9.46549479166667  10.5341796875 9.392578125  C 10.6754557291667 9.31966145833333  10.8782552083333 9.22395833333333  11.142578125 9.10546875  C 11.6256510416667 8.87760416666666  11.9674479166667 8.681640625  12.16796875 8.517578125  C 12.3684895833333 8.353515625  12.46875 8.13020833333333  12.46875 7.84765625  C 12.46875 7.46484375  12.2705078125 7.13899739583333  11.8740234375 6.8701171875  C 11.4775390625 6.60123697916667  11.0423177083333 6.466796875  10.568359375 6.466796875  C 10.0579427083333 6.466796875  9.625 6.58984375  9.26953125 6.8359375  C 9.00520833333333 7.01822916666667  8.640625 7.396484375  8.17578125 7.970703125  C 8.09375 8.080078125  7.97981770833333 8.134765625  7.833984375 8.134765625  C 7.73372395833333 8.134765625  7.64713541666667 8.107421875  7.57421875 8.052734375  L 6.09765625 6.931640625  C 6.00651041666667 6.86783854166667  5.95182291666667 6.77669270833333  5.93359375 6.658203125  C 5.91536458333333 6.53971354166667  5.93815104166667 6.43489583333333  6.001953125 6.34375  C 7.11393229166667 4.59375  8.70442708333333 3.71875  10.7734375 3.71875  C 11.94921875 3.71875  13.0361328125 4.12662760416667  14.0341796875 4.9423828125  Z M 13.8974609375 2.447265625  C 12.8173828125 1.982421875  11.6848958333333 1.75  10.5 1.75  C 9.31510416666667 1.75  8.1826171875 1.982421875  7.1025390625 2.447265625  C 6.0224609375 2.912109375  5.0927734375 3.5341796875  4.3134765625 4.3134765625  C 3.5341796875 5.0927734375  2.912109375 6.0224609375  2.447265625 7.1025390625  C 1.982421875 8.1826171875  1.75 9.31510416666667  1.75 10.5  C 1.75 11.6848958333333  1.982421875 12.8173828125  2.447265625 13.8974609375  C 2.912109375 14.9775390625  3.5341796875 15.9072265625  4.3134765625 16.6865234375  C 5.0927734375 17.4658203125  6.0224609375 18.087890625  7.1025390625 18.552734375  C 8.1826171875 19.017578125  9.31510416666667 19.25  10.5 19.25  C 11.6848958333333 19.25  12.8173828125 19.017578125  13.8974609375 18.552734375  C 14.9775390625 18.087890625  15.9072265625 17.4658203125  16.6865234375 16.6865234375  C 17.4658203125 15.9072265625  18.087890625 14.9775390625  18.552734375 13.8974609375  C 19.017578125 12.8173828125  19.25 11.6848958333333  19.25 10.5  C 19.25 9.31510416666667  19.017578125 8.1826171875  18.552734375 7.1025390625  C 18.087890625 6.0224609375  17.4658203125 5.0927734375  16.6865234375 4.3134765625  C 15.9072265625 3.5341796875  14.9775390625 2.912109375  13.8974609375 2.447265625  Z M 19.591796875 5.2294921875  C 20.5305989583333 6.83821614583333  21 8.59505208333333  21 10.5  C 21 12.4049479166667  20.5305989583333 14.1617838541667  19.591796875 15.7705078125  C 18.6529947916667 17.3792317708333  17.3792317708333 18.6529947916667  15.7705078125 19.591796875  C 14.1617838541667 20.5305989583333  12.4049479166667 21  10.5 21  C 8.59505208333333 21  6.83821614583333 20.5305989583333  5.2294921875 19.591796875  C 3.62076822916667 18.6529947916667  2.34700520833333 17.3792317708333  1.408203125 15.7705078125  C 0.469401041666667 14.1617838541667  0 12.4049479166667  0 10.5  C 0 8.59505208333333  0.469401041666667 6.83821614583333  1.408203125 5.2294921875  C 2.34700520833333 3.62076822916667  3.62076822916667 2.34700520833333  5.2294921875 1.408203125  C 6.83821614583333 0.469401041666665  8.59505208333333 0  10.5 0  C 12.4049479166667 0  14.1617838541667 0.469401041666665  15.7705078125 1.408203125  C 17.3792317708333 2.34700520833333  18.6529947916667 3.62076822916667  19.591796875 5.2294921875  Z " fill-rule="nonzero" fill="#ffffff" stroke="none" transform="matrix(1 0 0 1 1216 15 )" />
  </g>
</svg>