<?xml version="1.0" encoding="utf-8"?>
<svg version="1.1" xmlns:xlink="http://www.w3.org/1999/xlink" width="32px" height="27px" xmlns="http://www.w3.org/2000/svg">
  <g transform="matrix(1 0 0 1 -1253 -9 )">
    <path d="M 28.04 26.514  C 26.4 25.52  24.761 25.407  24.761 25.407  L 19.366 23.121  L 19.366 20.287  C 20.418 19.755  20.85 16.724  20.85 16.724  C 22.058 16.772  21.883 14.461  21.9 13.501  C 21.918 12.542  21.398 12.729  21.398 12.729  C 21.674 10.898  21.556 9.493  21.556 9.493  C 20.832 4.972  16.021 4.919  16.021 4.919  L 16.018 5.433  L 16.013 4.919  C 16.013 4.919  11.203 4.972  10.479 9.493  C 10.479 9.493  10.357 10.898  10.637 12.729  C 10.637 12.729  10.117 12.542  10.135 13.501  C 10.152 14.461  9.978 16.772  11.186 16.72  C 11.186 16.72  11.617 19.75  12.668 20.283  L 12.668 23.117  L 7.273 25.407  C 7.273 25.407  5.617 25.524  3.969 26.536  C 1.5 23.719  0 20.029  0 16  C 0 7.178  7.178 0  16 0  C 24.822 0  32 7.178  32 16  C 31.996 20.021  30.504 23.701  28.04 26.514  Z " fill-rule="nonzero" fill="#337dff" stroke="none" transform="matrix(1 0 0 1 1253 9 )" />
  </g>
</svg>