<?xml version="1.0" standalone="no"?><!DOCTYPE svg PUBLIC "-//W3C//DTD SVG 1.1//EN" "http://www.w3.org/Graphics/SVG/1.1/DTD/svg11.dtd"><svg t="1645175372857" class="icon" viewBox="0 0 1024 1024" version="1.1" xmlns="http://www.w3.org/2000/svg" p-id="2903" xmlns:xlink="http://www.w3.org/1999/xlink" width="200" height="200"><defs><style type="text/css"></style></defs><path d="M916.790099 736.368467C853.372585 681.313327 808.045105 535.091245 808.045105 363.338323 808.045105 233.329006 724.762686 123.082199 608.918208 82.738011 601.101948 35.840453 560.75776 0.001707 511.812274 0.001707 462.866787 0.001707 422.522599 35.840453 414.706338 82.738011 298.86186 123.082199 215.579442 233.329006 215.579442 363.338323 215.579442 535.057113 170.286093 681.279195 106.834448 736.334335 71.405288 767.087392 51.028401 811.766361 51.028401 858.800449 51.028401 913.548399 95.22952 957.92018 149.772678 957.92018L445.971378 957.92018C445.971378 1012.633998 457.269116 1023.965868 511.812274 1023.965868 566.355431 1023.965868 577.653169 1012.633998 577.653169 957.92018L873.851868 957.92018C928.395026 957.92018 972.596146 913.548399 972.596146 858.800449 972.596146 811.800494 952.253391 767.121524 916.790099 736.368467ZM187.556956 887.471445C127.996373 887.471445 124.753821 823.23476 138.47494 811.288512 226.638255 734.798389 281.420337 563.147863 281.420337 363.338323 281.420337 254.047215 402.93075 132.127216 511.812274 132.127216 620.693796 132.127216 742.20421 254.047215 742.20421 363.338323 742.20421 563.147863 796.986292 734.832521 885.149607 811.322644 898.904858 823.23476 906.004343 887.471445 836.067591 887.471445L187.556956 887.471445Z" p-id="2904" fill="#ffffff"></path></svg>